<?xml version="1.0" encoding="utf-8"?>
<!-- Generator: Adobe Illustrator 21.0.0, SVG Export Plug-In . SVG Version: 6.00 Build 0)  -->
<svg version="1.1" id="Capa_1" xmlns="http://www.w3.org/2000/svg" xmlns:xlink="http://www.w3.org/1999/xlink" x="0px" y="0px"
	 width="23px" height="23px" viewBox="0 0 23 23" style="enable-background:new 0 0 23 23;" xml:space="preserve">
<g>
	<path d="M0.2,16.8L1.4,18c0.2,0.2,0.3,0.2,0.5,0.2c0.2,0,0.4-0.1,0.5-0.2l9.1-9.1l9.1,9.1c0.2,0.2,0.3,0.2,0.5,0.2
		c0.2,0,0.4-0.1,0.5-0.2l1.2-1.2c0.2-0.2,0.2-0.3,0.2-0.5c0-0.2-0.1-0.4-0.2-0.5L12,5c-0.2-0.2-0.3-0.2-0.5-0.2
		c-0.2,0-0.4,0.1-0.5,0.2L0.2,15.8C0.1,15.9,0,16.1,0,16.3C0,16.5,0.1,16.7,0.2,16.8z"/>
</g>
</svg>
