<?xml version="1.0" standalone="no"?>
<!DOCTYPE svg PUBLIC "-//W3C//DTD SVG 20010904//EN"
 "http://www.w3.org/TR/2001/REC-SVG-20010904/DTD/svg10.dtd">
<svg version="1.0" xmlns="http://www.w3.org/2000/svg"
 width="101.000000pt" height="101.000000pt" viewBox="0 0 101.000000 101.000000"
 preserveAspectRatio="xMidYMid meet">
<metadata>
Created by potrace 1.11, written by Peter Selinger 2001-2013
</metadata>
<g transform="translate(0.000000,101.000000) scale(0.100000,-0.100000)"
fill="#000000" stroke="none">
<path d="M470 963 c-17 -26 -30 -49 -30 -53 0 -3 32 -5 70 -5 39 0 70 2 70 5
0 14 -61 100 -70 100 -6 0 -24 -21 -40 -47z"/>
<path d="M683 880 l-38 -39 -55 15 c-157 43 -349 -51 -417 -205 -54 -121 -37
-262 43 -372 41 -54 43 -62 36 -97 -13 -56 -6 -102 20 -129 32 -34 53 -44 103
-48 57 -5 104 25 124 80 18 50 15 46 43 49 147 17 264 110 315 250 21 58 19
179 -4 240 l-18 50 43 40 c40 37 43 43 37 76 -4 19 -8 47 -9 62 -4 45 -41 66
-118 67 -64 0 -67 -1 -105 -39z"/>
<path d="M189 889 c-13 -7 -14 -18 -6 -68 l10 -60 49 44 c28 25 55 45 61 45
17 0 5 7 -48 28 -33 13 -56 17 -66 11z"/>
<path d="M52 620 c-23 -11 -42 -26 -42 -33 0 -8 20 -31 45 -51 43 -36 45 -36
46 -14 1 24 2 35 14 87 8 37 0 38 -63 11z"/>
<path d="M900 609 c5 -17 10 -49 12 -70 1 -22 5 -39 8 -39 16 0 91 80 85 90
-6 10 -48 30 -93 44 -19 7 -20 5 -12 -25z"/>
<path d="M92 318 c-12 -24 -22 -51 -22 -60 0 -18 6 -20 55 -20 69 0 68 -4 32
62 -17 33 -34 60 -37 60 -3 0 -15 -19 -28 -42z"/>
<path d="M866 312 c-14 -28 -30 -53 -36 -57 -24 -15 -6 -25 44 -25 76 0 85 15
47 81 l-29 52 -26 -51z"/>
<path d="M636 116 l-58 -23 42 -36 c58 -49 70 -43 85 46 7 42 9 42 -69 13z"/>
</g>
</svg>
